Title                            : [Rec] 2
Year                             : 2009
Genre                            : Drama | Horror | Thriller
iMDB URL                         : http://www.imdb.com/title/tt1245112/
Awards                           : 6 wins & 1 nomination

Complete name                    : [Rec].2.2009.DVDRIP.H264-ZEKTORM.mp4
Format                           : MPEG-4
Format profile                   : Base Media
Codec ID                         : isom
File size                        : 701 MiB
Duration                         : 1h 20mn
Overall bit rate                 : 1211 Kbps
Subtitles                        : English (Format: VobSub/srt)

Video
ID                               : 1
Format                           : AVC
Format/Info                      : Advanced Video Codec
Format profile                   : High@L3.0
Format settings, CABAC           : Yes
Codec ID                         : avc1
Codec ID/Info                    : Advanced Video Coding
Duration                         : 1h 20mn
Bit rate mode                    : Variable
Bit rate                         : 1125 Kbps
Maximum bit rate                 : 8350 Kbps
Width                            : 720 pixels
Height                           : 384 pixels
Display aspect ratio             : 1.875
Frame rate mode                  : Constant
Frame rate                       : 25.000 fps
Resolution                       : 24 bits
Colorimetry                      : 4:2:0
Scan type                        : Progressive
Bits/(Pixel*Frame)               : 0.163
Stream size                      : 651 MiB (93%)
Title                            : Video
Writing library                  : x264

Audio
ID                               : 2
Format                           : AAC
Format/Info                      : Advanced Audio Codec
Format version                   : Version 4
Format profile                   : LC
Format settings, SBR             : Yes
Format settings, PS              : No
Codec ID                         : 40
Duration                         : 1h 20mn
Bit rate mode                    : Variable
Bit rate                         : 83.8 Kbps
Maximum bit rate                 : 110 Kbps
Channel(s)                       : 2 channels
Channel positions                : L R
Sampling rate                    : 48.0 KHz
Resolution                       : 16 bits
Stream size                      : 48.5 MiB (7%)
Language                         : Spanish
